<svg width="175" height="180" viewBox="0 0 175 180" fill="none" xmlns="http://www.w3.org/2000/svg">
<path d="M174.5 96.3457C174.5 142.185 135.549 179.346 87.5 179.346C39.4512 179.346 0.5 142.185 0.5 96.3457C0.5 50.5061 39.4512 13.3457 87.5 13.3457C135.549 13.3457 174.5 50.5061 174.5 96.3457Z" fill="#36FCF0" fill-opacity="0.4"/>
<path d="M75.5469 144.531C74.6615 144.427 73.5677 144.323 72.2656 144.219C71.1719 144.115 69.8177 144.036 68.2031 143.984C66.6406 143.932 64.8698 143.906 62.8906 143.906C59.0365 143.906 54.4531 144.089 49.1406 144.453C43.8281 144.818 37.9167 145.521 31.4062 146.562C34.1667 134.948 36.0677 123.568 37.1094 112.422C38.2031 101.276 38.75 90.5469 38.75 80.2344C38.75 70.8594 38.3854 62.0573 37.6562 53.8281C36.9271 45.5469 35.9635 37.9167 34.7656 30.9375C39.974 31.875 44.6354 32.5 48.75 32.8125C52.9167 33.125 56.5104 33.2812 59.5312 33.2812C61.6146 33.2812 63.4375 33.2292 65 33.125C66.6146 33.0208 67.9427 32.9167 68.9844 32.8125C70.2344 32.6562 71.3021 32.5 72.1875 32.3438C73.9583 42.5521 76.1719 52.6562 78.8281 62.6562C81.4844 72.6042 84.7656 82.6042 88.6719 92.6562C91.9531 82.5 94.5573 72.3438 96.4844 62.1875C98.4115 51.9792 99.7135 41.5625 100.391 30.9375L101.016 32.3438L100.391 30.9375C105.599 31.875 110.339 32.5 114.609 32.8125C118.88 33.125 122.656 33.2812 125.938 33.2812C128.125 33.2812 130.052 33.2292 131.719 33.125C133.385 33.0208 134.818 32.9167 136.016 32.8125C137.37 32.6562 138.542 32.5 139.531 32.3438C138.438 37.5521 137.604 43.724 137.031 50.8594C136.458 57.9427 136.172 65.5469 136.172 73.6719C136.172 79.4531 136.328 85.4167 136.641 91.5625C136.953 97.6562 137.422 103.75 138.047 109.844C138.724 115.885 139.583 121.849 140.625 127.734C141.667 133.62 142.917 139.219 144.375 144.531C143.333 144.427 142.135 144.323 140.781 144.219C139.583 144.115 138.177 144.036 136.562 143.984C134.948 143.932 133.073 143.906 130.938 143.906C126.875 143.906 122.083 144.089 116.562 144.453C111.094 144.818 105.104 145.521 98.5938 146.562C99.8958 143.958 100.964 140.625 101.797 136.562C102.682 132.5 103.385 128.177 103.906 123.594C104.479 119.01 104.896 114.453 105.156 109.922C105.469 105.339 105.677 101.25 105.781 97.6562C104.271 100.885 102.812 104.167 101.406 107.5C100 110.833 98.5417 114.401 97.0312 118.203C95.5729 121.953 94.0365 126.016 92.4219 130.391C90.8073 134.766 89.0365 139.635 87.1094 145C85.1302 139.635 83.3333 134.766 81.7188 130.391C80.1042 126.016 78.5677 121.953 77.1094 118.203C75.7031 114.453 74.2969 110.911 72.8906 107.578C71.5365 104.193 70.1302 100.833 68.6719 97.5C69.1406 105.729 69.9219 113.854 71.0156 121.875C72.1094 129.844 73.6198 137.396 75.5469 144.531Z" fill="#1C78FF"/>
</svg>
