<svg width="139" height="105" viewBox="0 0 139 105" fill="none" xmlns="http://www.w3.org/2000/svg">
<path d="M23.1667 45.9375C18.3596 45.9375 14.4792 48.8687 14.4792 52.5C14.4792 56.1312 18.3596 59.0625 23.1667 59.0625C27.9738 59.0625 31.8542 56.1312 31.8542 52.5C31.8542 48.8687 27.9738 45.9375 23.1667 45.9375ZM23.1667 19.6875C18.3596 19.6875 14.4792 22.6188 14.4792 26.25C14.4792 29.8813 18.3596 32.8125 23.1667 32.8125C27.9738 32.8125 31.8542 29.8813 31.8542 26.25C31.8542 22.6188 27.9738 19.6875 23.1667 19.6875ZM23.1667 72.1875C18.3596 72.1875 14.4792 75.1625 14.4792 78.75C14.4792 82.3375 18.4175 85.3125 23.1667 85.3125C27.9159 85.3125 31.8542 82.3375 31.8542 78.75C31.8542 75.1625 27.9738 72.1875 23.1667 72.1875ZM40.5417 83.125H121.625V74.375H40.5417V83.125ZM40.5417 56.875H121.625V48.125H40.5417V56.875ZM40.5417 21.875V30.625H121.625V21.875H40.5417Z" fill="#1C9BFF"/>
</svg>
